<svg xmlns="http://www.w3.org/2000/svg" width="4292" height="1370" viewBox="0 0 4292 1370" fill="none"><path d="M272.041 381.294H1238.68V263.962H389.374V117.332H1238.68V0H272.041V381.294Z" fill="#259D4A"></path><path d="M1121.32 532.477V750.676C1121.32 883.811 1068.43 1011.49 974.289 1105.63C880.148 1199.77 752.468 1252.66 619.333 1252.66C486.198 1252.66 358.518 1199.77 264.378 1105.63C170.238 1011.49 117.35 883.811 117.35 750.676V0H0V750.676C0 914.93 65.2502 1072.46 181.396 1188.6C297.542 1304.75 455.07 1370 619.324 1370C783.581 1370 941.105 1304.75 1057.25 1188.6C1173.4 1072.46 1238.65 914.93 1238.65 750.676V532.477H1121.32Z" fill="#259D4A"></path><path d="M849.338 741.434C848.801 802.074 824.333 860.049 781.262 902.74C738.191 945.434 680.002 969.385 619.359 969.385C558.716 969.385 500.527 945.434 457.456 902.74C414.386 860.049 389.92 802.074 389.384 741.434V532.628H272.05V741.434C271.72 787.254 280.46 832.684 297.766 875.111C315.072 917.539 340.601 956.121 372.887 988.64C405.171 1021.16 443.568 1046.96 485.87 1064.57C528.171 1082.18 573.539 1091.25 619.359 1091.25C665.179 1091.25 710.547 1082.18 752.849 1064.57C795.15 1046.96 833.551 1021.16 865.834 988.64C898.117 956.121 923.646 917.539 940.952 875.111C958.258 832.684 966.999 787.254 966.67 741.434V532.628H849.338V741.434Z" fill="#259D4A"></path><path d="M617.03 764.468L679.798 804.023V532.628H558.652V804.023L617.03 764.468Z" fill="#259D4A"></path><path d="M1568.96 1269.8V1117.69H1590.2V1250.61H1667.38V1269.8H1568.96Z" fill="#0B434B"></path><path d="M1757.82 1234.15H1776.54C1775.01 1245.46 1769.22 1255.77 1760.34 1262.96C1750.86 1270.21 1739.14 1273.93 1727.21 1273.48C1720.28 1273.81 1713.36 1272.59 1706.96 1269.91C1700.56 1267.23 1694.84 1263.16 1690.21 1257.99C1680.62 1246.08 1675.79 1231.04 1676.65 1215.77C1675.69 1199.9 1680.46 1184.21 1690.09 1171.55C1694.66 1166.26 1700.38 1162.08 1706.81 1159.33C1713.25 1156.57 1720.22 1155.32 1727.21 1155.67C1734.16 1155.25 1741.13 1156.34 1747.62 1158.87C1754.11 1161.39 1759.98 1165.3 1764.81 1170.31C1774.33 1181.93 1779.09 1196.74 1778.13 1211.73C1778.13 1214 1778.1 1215.69 1778.1 1216.79C1778.06 1217.9 1777.94 1218.96 1777.82 1220H1696.5C1696.09 1229.77 1699.23 1239.37 1705.35 1247C1710.97 1252.42 1718.29 1255.75 1726.08 1256.42C1733.86 1257.09 1741.64 1255.08 1748.12 1250.7C1753.27 1246.55 1756.72 1240.67 1757.82 1234.15ZM1696.41 1204.5H1758.25C1758.75 1195.8 1755.89 1187.24 1750.25 1180.59C1744.11 1175.2 1736.23 1172.21 1728.06 1172.18C1719.89 1172.15 1711.99 1175.09 1705.81 1180.43C1699.96 1187.11 1696.64 1195.63 1696.41 1204.5Z" fill="#0B434B"></path><path d="M1869.48 1255.18C1864.14 1260.85 1857.78 1265.48 1850.73 1268.8C1844.11 1271.83 1836.91 1273.39 1829.63 1273.37C1819.86 1273.95 1810.23 1270.79 1802.71 1264.54C1799.43 1261.4 1796.87 1257.59 1795.2 1253.38C1793.53 1249.16 1792.79 1244.64 1793.04 1240.11C1792.8 1235.71 1793.53 1231.32 1795.17 1227.23C1796.82 1223.15 1799.33 1219.47 1802.55 1216.47C1810.88 1209.95 1820.97 1206.1 1831.53 1205.4C1834.83 1205.06 1839.27 1204.58 1844.89 1203.97C1850.86 1203.63 1856.78 1202.69 1862.56 1201.17C1864.35 1200.66 1865.89 1199.5 1866.88 1197.92C1867.8 1195.1 1868.16 1192.14 1867.93 1189.19C1868.08 1186.7 1867.57 1184.22 1866.46 1181.99C1865.34 1179.76 1863.67 1177.87 1861.59 1176.49C1855.79 1173.28 1849.18 1171.81 1842.56 1172.26C1835.57 1171.77 1828.61 1173.58 1822.76 1177.43C1820.5 1179.25 1818.71 1181.59 1817.55 1184.25C1816.39 1186.9 1815.88 1189.81 1816.08 1192.7H1798.17V1191.88C1797.96 1186.84 1798.93 1181.82 1801.02 1177.23C1803.11 1172.64 1806.24 1168.6 1810.18 1165.44C1819.73 1158.49 1831.39 1155.06 1843.19 1155.74C1854.9 1154.83 1866.59 1157.75 1876.51 1164.04C1880.21 1167.23 1883.1 1171.24 1884.95 1175.75C1886.8 1180.27 1887.56 1185.16 1887.15 1190.02V1245.37C1886.82 1248.52 1887.37 1251.7 1888.75 1254.54C1889.47 1255.31 1890.36 1255.89 1891.34 1256.25C1892.32 1256.61 1893.38 1256.74 1894.42 1256.62C1895.11 1256.61 1895.8 1256.56 1896.48 1256.47C1897.3 1256.37 1898.27 1256.21 1899.4 1256.01V1270.35C1897.4 1270.9 1895.37 1271.34 1893.33 1271.66C1891.7 1271.88 1890.07 1271.99 1888.43 1272C1883.37 1272.38 1878.34 1270.96 1874.23 1267.99C1872.57 1266.44 1871.29 1264.54 1870.47 1262.43C1869.65 1260.32 1869.31 1258.05 1869.48 1255.79V1255.18ZM1867.69 1213.67C1859.45 1217.17 1850.68 1219.3 1841.74 1219.96C1837.39 1220.52 1834.13 1220.96 1831.97 1221.32C1826.53 1221.79 1821.36 1223.87 1817.12 1227.29C1815.53 1228.96 1814.3 1230.95 1813.52 1233.12C1812.74 1235.29 1812.42 1237.6 1812.58 1239.9C1812.44 1242.28 1812.85 1244.66 1813.76 1246.85C1814.68 1249.05 1816.08 1251.01 1817.87 1252.59C1822.18 1255.82 1827.51 1257.4 1832.89 1257.04C1841.85 1257.42 1850.68 1254.76 1857.94 1249.5C1861 1247.3 1863.49 1244.4 1865.18 1241.04C1866.88 1237.68 1867.74 1233.95 1867.69 1230.19V1213.67Z" fill="#0B434B"></path><path d="M1916.65 1269.94V1159.35H1934.95V1179.17C1937.36 1172.55 1941.62 1166.76 1947.23 1162.48C1952.81 1158.69 1959.46 1156.76 1966.21 1156.98C1967.61 1156.98 1968.63 1156.99 1969.24 1157.01C1969.88 1157.06 1970.52 1157.15 1971.15 1157.28V1176.89C1970.64 1176.84 1970.09 1176.79 1969.48 1176.73C1968.82 1176.72 1967.88 1176.7 1966.63 1176.7C1962.43 1176.4 1958.22 1176.97 1954.24 1178.36C1950.27 1179.76 1946.62 1181.94 1943.53 1184.79C1940.72 1188.02 1938.57 1191.76 1937.22 1195.81C1935.86 1199.86 1935.31 1204.14 1935.61 1208.41V1269.94H1916.65Z" fill="#0B434B"></path><path d="M2063.4 1269.98V1201.93C2064.18 1194.05 2062.37 1186.13 2058.27 1179.36C2056.01 1177.07 2053.26 1175.32 2050.23 1174.24C2047.2 1173.16 2043.96 1172.77 2040.76 1173.11C2036.26 1172.84 2031.76 1173.48 2027.52 1175C2023.29 1176.52 2019.4 1178.88 2016.1 1181.94C2013.03 1185.31 2010.68 1189.27 2009.17 1193.57C2007.66 1197.87 2007.03 1202.43 2007.32 1206.98V1269.98H1988.41V1159.38H2006.5V1175.49C2010.35 1169.51 2015.68 1164.6 2021.97 1161.24C2028.38 1158.03 2035.49 1156.43 2042.67 1156.59C2050.01 1156.37 2057.31 1157.66 2064.14 1160.37C2069.68 1162.66 2074.38 1166.6 2077.57 1171.68C2079.41 1174.56 2080.71 1177.76 2081.39 1181.12C2082.3 1186.8 2082.68 1192.55 2082.52 1198.3V1269.98H2063.4Z" fill="#0B434B"></path><path d="M2136.69 1246.94H2115.13V1269.96H2136.69V1246.94Z" fill="#0B434B"></path><path d="M2213.82 1269.8L2271.34 1117.69H2294.57L2352.33 1269.8H2329.49L2313.1 1224.36H2252.07L2235.57 1269.8H2213.82ZM2258.6 1206.61H2306.88L2282.92 1139.48L2258.6 1206.61Z" fill="#0B434B"></path><path d="M2440.84 1196.03C2440.76 1192.68 2439.97 1189.4 2438.53 1186.38C2437.09 1183.36 2435.03 1180.68 2432.48 1178.52C2426.55 1174.13 2419.26 1171.96 2411.9 1172.38C2407.37 1172.15 2402.85 1173.01 2398.73 1174.89C2394.6 1176.78 2390.99 1179.63 2388.21 1183.21C2382.08 1192.33 2379.14 1203.23 2379.85 1214.2C2379.17 1225.18 2381.98 1236.09 2387.88 1245.37C2390.48 1248.94 2393.91 1251.81 2397.89 1253.72C2401.86 1255.63 2406.25 1256.52 2410.65 1256.32C2418.3 1256.71 2425.83 1254.32 2431.87 1249.6C2437.45 1244.55 2440.95 1237.6 2441.69 1230.1H2459.8C2459.63 1236.11 2458.25 1242.02 2455.73 1247.48C2453.21 1252.94 2449.61 1257.83 2445.15 1261.86C2435.17 1269.88 2422.58 1273.94 2409.8 1273.26C2402.96 1273.6 2396.13 1272.37 2389.83 1269.66C2383.54 1266.96 2377.95 1262.86 2373.48 1257.67C2364.78 1244.93 2360.17 1229.85 2360.28 1214.43C2360.39 1199.02 2365.2 1184 2374.07 1171.39C2378.8 1166.12 2384.66 1161.96 2391.2 1159.24C2397.75 1156.51 2404.82 1155.28 2411.9 1155.64C2424.2 1155.02 2436.31 1158.9 2445.97 1166.53C2450.21 1170.2 2453.62 1174.72 2455.96 1179.81C2458.3 1184.89 2459.53 1190.42 2459.56 1196.03H2440.84Z" fill="#0B434B"></path><path d="M2554.2 1269.8V1201.75C2554.99 1193.86 2553.19 1185.92 2549.07 1179.15C2546.8 1176.87 2544.05 1175.12 2541.02 1174.05C2537.99 1172.97 2534.76 1172.59 2531.56 1172.93C2522.62 1172.47 2513.87 1175.53 2507.17 1181.45C2504.12 1184.42 2501.74 1188.01 2500.18 1191.97C2498.62 1195.93 2497.91 1200.17 2498.12 1204.43V1269.8H2479.2V1117.69H2498.12V1174.78C2501.42 1168.94 2506.37 1164.19 2512.34 1161.11C2518.89 1157.85 2526.15 1156.24 2533.47 1156.41C2540.81 1156.19 2548.11 1157.48 2554.94 1160.19C2560.48 1162.47 2565.18 1166.42 2568.37 1171.49C2570.21 1174.38 2571.51 1177.58 2572.19 1180.94C2573.1 1186.62 2573.48 1192.37 2573.32 1198.12V1269.8H2554.2Z" fill="#0B434B"></path><path d="M2601.58 1117.69H2620.49V1138.85H2601.58V1117.69ZM2601.58 1159.2H2620.49V1269.81H2601.58V1159.2Z" fill="#0B434B"></path><path d="M2725.44 1234.15H2744.16C2742.6 1245.45 2736.81 1255.75 2727.96 1262.96C2718.48 1270.21 2706.76 1273.93 2694.83 1273.47C2687.89 1273.81 2680.97 1272.59 2674.56 1269.92C2668.15 1267.24 2662.43 1263.17 2657.79 1258C2648.22 1246.07 2643.39 1231.04 2644.23 1215.77C2643.28 1199.89 2648.06 1184.21 2657.71 1171.55C2662.28 1166.26 2668 1162.08 2674.43 1159.33C2680.87 1156.57 2687.84 1155.32 2694.83 1155.66C2701.78 1155.25 2708.74 1156.34 2715.23 1158.87C2721.73 1161.4 2727.59 1165.3 2732.43 1170.31C2741.93 1181.95 2746.67 1196.74 2745.72 1211.73C2745.72 1214 2745.72 1215.69 2745.68 1216.79C2745.65 1217.87 2745.56 1218.94 2745.41 1220H2664.12C2663.68 1229.77 2666.81 1239.37 2672.93 1247C2678.56 1252.42 2685.88 1255.75 2693.66 1256.42C2701.45 1257.1 2709.23 1255.07 2715.7 1250.7C2720.87 1246.56 2724.33 1240.67 2725.44 1234.15ZM2664 1204.5H2725.87C2726.36 1195.8 2723.5 1187.24 2717.87 1180.59C2711.73 1175.2 2703.85 1172.21 2695.68 1172.18C2687.51 1172.16 2679.6 1175.09 2673.43 1180.43C2667.59 1187.12 2664.26 1195.63 2664 1204.5Z" fill="#0B434B"></path><path d="M2794.7 1269.93L2753.17 1159.33H2773.45L2804.91 1247.94L2835.64 1159.33H2855.91L2814.82 1269.93H2794.7Z" fill="#0B434B"></path><path d="M2946.81 1234.15H2965.54C2963.97 1245.45 2958.18 1255.75 2949.34 1262.96C2939.85 1270.21 2928.13 1273.93 2916.2 1273.47C2909.27 1273.81 2902.34 1272.59 2895.94 1269.92C2889.53 1267.24 2883.8 1263.17 2879.16 1258C2869.59 1246.07 2864.76 1231.04 2865.61 1215.77C2864.66 1199.89 2869.44 1184.21 2879.08 1171.55C2883.65 1166.26 2889.38 1162.08 2895.81 1159.33C2902.24 1156.57 2909.21 1155.32 2916.2 1155.66C2923.16 1155.25 2930.12 1156.34 2936.61 1158.87C2943.1 1161.4 2948.96 1165.3 2953.8 1170.31C2963.3 1181.95 2968.05 1196.74 2967.09 1211.73C2967.09 1214 2967.09 1215.69 2967.05 1216.79C2967.02 1217.87 2966.93 1218.94 2966.78 1220H2885.49C2885.05 1229.77 2888.19 1239.37 2894.31 1247C2899.93 1252.42 2907.25 1255.75 2915.04 1256.42C2922.82 1257.1 2930.6 1255.07 2937.07 1250.7C2942.24 1246.56 2945.7 1240.67 2946.81 1234.15ZM2885.37 1204.5H2947.24C2947.73 1195.8 2944.87 1187.24 2939.24 1180.59C2933.1 1175.2 2925.22 1172.21 2917.05 1172.18C2908.88 1172.16 2900.97 1175.09 2894.8 1180.43C2888.96 1187.12 2885.63 1195.63 2885.37 1204.5Z" fill="#0B434B"></path><path d="M3014.66 1246.94H2993.1V1269.96H3014.66V1246.94Z" fill="#0B434B"></path><path d="M3101.87 1219.8H3122.18C3122.09 1224.74 3123.04 1229.64 3124.98 1234.18C3126.91 1238.72 3129.79 1242.8 3133.42 1246.14C3141.51 1252.98 3151.89 1256.5 3162.48 1255.96C3172.47 1256.51 3182.41 1253.9 3190.82 1248.51C3194.12 1246.28 3196.8 1243.26 3198.61 1239.72C3200.43 1236.18 3201.32 1232.25 3201.2 1228.27C3201.2 1216.63 3188.23 1207.79 3162.27 1201.73C3160.72 1201.39 3159.53 1201.1 3158.7 1200.92C3143.77 1198.58 3129.53 1192.99 3117.01 1184.55C3113.53 1181.27 3110.82 1177.27 3109.06 1172.84C3107.34 1168.4 3106.57 1163.64 3106.86 1158.88C3106.66 1152.62 3107.93 1146.41 3110.55 1140.73C3113.17 1135.06 3117.09 1130.07 3122 1126.18C3133.57 1117.48 3147.82 1113.11 3162.27 1113.84C3176.9 1113.02 3191.3 1117.64 3202.69 1126.81C3207.63 1131.29 3211.52 1136.8 3214.08 1142.94C3216.67 1149.09 3217.86 1155.73 3217.59 1162.39L3197.51 1162.49C3197.45 1158.07 3196.47 1153.7 3194.66 1149.67C3192.84 1145.63 3190.2 1142.02 3186.93 1139.03C3179.55 1133.25 3170.3 1130.36 3160.93 1130.89C3152.19 1130.45 3143.5 1132.78 3136.19 1137.55C3133.27 1139.49 3130.89 1142.13 3129.29 1145.22C3127.65 1148.32 3126.85 1151.77 3126.94 1155.26C3126.94 1167.04 3139.7 1175.82 3165.24 1181.6C3168.99 1182.49 3171.91 1183.19 3173.93 1183.64C3174.35 1183.73 3175.09 1183.9 3176.16 1184.17C3187.97 1186.12 3199.3 1190.44 3209.41 1196.87C3213.48 1200.26 3216.73 1204.57 3218.87 1209.44C3221.1 1214.64 3222.23 1220.25 3222.14 1225.9C3222.38 1232.59 3221.07 1239.23 3218.27 1245.31C3215.48 1251.39 3211.31 1256.72 3206.08 1260.9C3193.59 1270.15 3178.24 1274.74 3162.72 1273.91C3146.84 1274.88 3131.16 1269.9 3118.79 1259.93C3113.35 1254.77 3109.03 1248.53 3106.15 1241.63C3103.24 1234.72 3101.78 1227.29 3101.87 1219.8Z" fill="#0B434B"></path><path d="M3264.74 1159.33V1227.17C3263.97 1235.09 3265.78 1243.04 3269.95 1249.83C3272.21 1252.15 3274.97 1253.92 3278.01 1255.03C3281.07 1256.13 3284.31 1256.53 3287.55 1256.2C3292.13 1256.52 3296.71 1255.84 3301.03 1254.21C3305.31 1252.57 3309.21 1250.03 3312.42 1246.74C3318.54 1238.81 3321.52 1228.9 3320.8 1218.9V1159.33H3339.75V1269.93H3321.64V1253.41C3318.01 1259.55 3312.71 1264.56 3306.38 1267.87C3299.57 1271.23 3292.02 1272.9 3284.4 1272.73C3277.35 1272.89 3270.36 1271.54 3263.88 1268.79C3258.44 1266.48 3253.77 1262.6 3250.53 1257.64C3248.71 1254.74 3247.43 1251.55 3246.75 1248.19C3245.83 1242.52 3245.44 1236.76 3245.59 1231.01V1159.33L3264.74 1159.33Z" fill="#0B434B"></path><path d="M3443.3 1196.03C3443.21 1192.68 3442.41 1189.4 3440.98 1186.38C3439.53 1183.36 3437.47 1180.69 3434.92 1178.52C3429 1174.13 3421.71 1171.96 3414.36 1172.39C3409.84 1172.15 3405.29 1173.01 3401.16 1174.89C3397.06 1176.78 3393.43 1179.63 3390.63 1183.21C3384.53 1192.35 3381.59 1203.23 3382.3 1214.2C3381.59 1225.18 3384.42 1236.09 3390.33 1245.38C3392.92 1248.94 3396.34 1251.81 3400.33 1253.72C3404.28 1255.63 3408.68 1256.52 3413.09 1256.32C3420.73 1256.72 3428.28 1254.33 3434.29 1249.61C3439.88 1244.56 3443.39 1237.6 3444.14 1230.1H3462.22C3462.07 1236.11 3460.67 1242.02 3458.17 1247.48C3455.67 1252.94 3452.08 1257.83 3447.61 1261.86C3437.65 1269.88 3425.04 1273.93 3412.28 1273.27C3405.41 1273.6 3398.6 1272.37 3392.3 1269.66C3385.99 1266.96 3380.4 1262.86 3375.91 1257.67C3367.23 1244.94 3362.62 1229.86 3362.7 1214.44C3362.82 1199.03 3367.61 1184.01 3376.5 1171.4C3381.23 1166.12 3387.09 1161.97 3393.66 1159.25C3400.21 1156.52 3407.29 1155.29 3414.36 1155.64C3426.65 1155.02 3438.75 1158.89 3448.39 1166.54C3452.64 1170.2 3456.03 1174.72 3458.38 1179.81C3460.76 1184.9 3461.98 1190.43 3462.04 1196.03H3443.3Z" fill="#0B434B"></path><path d="M3556.38 1196.03C3556.29 1192.68 3555.52 1189.4 3554.06 1186.38C3552.64 1183.36 3550.55 1180.68 3548.03 1178.52C3542.08 1174.13 3534.79 1171.96 3527.45 1172.38C3522.89 1172.15 3518.37 1173.01 3514.27 1174.89C3510.14 1176.78 3506.54 1179.63 3503.74 1183.21C3497.61 1192.33 3494.67 1203.23 3495.38 1214.2C3494.7 1225.18 3497.53 1236.09 3503.41 1245.37C3506 1248.94 3509.45 1251.81 3513.41 1253.72C3517.39 1255.63 3521.79 1256.52 3526.2 1256.32C3533.84 1256.71 3541.36 1254.32 3547.4 1249.6C3552.99 1244.55 3556.5 1237.6 3557.22 1230.1H3575.33C3575.18 1236.11 3573.78 1242.02 3571.25 1247.48C3568.76 1252.94 3565.16 1257.83 3560.7 1261.86C3550.7 1269.88 3538.12 1273.94 3525.33 1273.26C3518.49 1273.6 3511.65 1272.37 3505.38 1269.66C3499.07 1266.96 3493.48 1262.86 3489.02 1257.67C3480.31 1244.93 3475.7 1229.85 3475.81 1214.43C3475.93 1199.02 3480.72 1184 3489.61 1171.39C3494.34 1166.12 3500.2 1161.96 3506.75 1159.24C3513.29 1156.51 3520.34 1155.28 3527.45 1155.64C3539.73 1155.02 3551.83 1158.9 3561.5 1166.53C3565.75 1170.2 3569.14 1174.72 3571.49 1179.81C3573.84 1184.89 3575.06 1190.42 3575.09 1196.03H3556.38Z" fill="#0B434B"></path><path d="M3670.5 1234.15H3689.2C3687.69 1245.46 3681.89 1255.77 3673.03 1262.96C3663.54 1270.21 3651.82 1273.93 3639.89 1273.48C3632.96 1273.81 3626.04 1272.59 3619.64 1269.91C3613.25 1267.23 3607.51 1263.16 3602.87 1257.99C3593.29 1246.08 3588.47 1231.04 3589.33 1215.77C3588.35 1199.9 3593.14 1184.21 3602.75 1171.55C3607.33 1166.26 3613.07 1162.08 3619.49 1159.33C3625.92 1156.57 3632.91 1155.32 3639.89 1155.67C3646.85 1155.25 3653.81 1156.34 3660.3 1158.87C3666.78 1161.39 3672.64 1165.3 3677.49 1170.31C3687 1181.93 3691.76 1196.74 3690.81 1211.73C3690.81 1214 3690.78 1215.69 3690.78 1216.79C3690.75 1217.9 3690.6 1218.96 3690.48 1220H3609.17C3608.76 1229.77 3611.91 1239.37 3618.03 1247C3623.66 1252.42 3630.97 1255.75 3638.76 1256.42C3646.53 1257.09 3654.32 1255.08 3660.8 1250.7C3665.95 1246.55 3669.4 1240.67 3670.5 1234.15ZM3609.08 1204.5H3670.91C3671.42 1195.8 3668.56 1187.24 3662.91 1180.59C3656.79 1175.2 3648.91 1172.21 3640.73 1172.18C3632.55 1172.15 3624.67 1175.09 3618.48 1180.43C3612.62 1187.11 3609.32 1195.63 3609.08 1204.5Z" fill="#0B434B"></path><path d="M3788.35 1234.15H3807.06C3805.54 1245.46 3799.74 1255.77 3790.88 1262.96C3781.39 1270.21 3769.67 1273.93 3757.75 1273.48C3750.79 1273.81 3743.89 1272.59 3737.49 1269.91C3731.07 1267.23 3725.36 1263.16 3720.72 1257.99C3711.14 1246.08 3706.33 1231.04 3707.16 1215.77C3706.21 1199.9 3710.99 1184.21 3720.6 1171.55C3725.18 1166.26 3730.89 1162.08 3737.34 1159.33C3743.77 1156.57 3750.76 1155.32 3757.75 1155.67C3764.68 1155.25 3771.64 1156.34 3778.15 1158.87C3784.63 1161.39 3790.49 1165.3 3795.34 1170.31C3804.86 1181.93 3809.62 1196.74 3808.66 1211.73C3808.66 1214 3808.6 1215.69 3808.6 1216.79C3808.57 1217.9 3808.46 1218.96 3808.34 1220H3727.02C3726.61 1229.77 3729.76 1239.37 3735.86 1247C3741.51 1252.42 3748.83 1255.75 3756.59 1256.42C3764.38 1257.09 3772.17 1255.08 3778.63 1250.7C3783.8 1246.55 3787.25 1240.67 3788.35 1234.15ZM3726.94 1204.5H3788.77C3789.27 1195.8 3786.42 1187.24 3780.77 1180.59C3774.64 1175.2 3766.76 1172.21 3758.58 1172.18C3750.4 1172.15 3742.52 1175.09 3736.33 1180.43C3730.47 1187.11 3727.17 1195.63 3726.94 1204.5Z" fill="#0B434B"></path><path d="M3928.8 1117.69V1269.81H3910.51V1255.86C3906.08 1261.36 3900.48 1265.8 3894.12 1268.87C3887.78 1271.81 3880.89 1273.3 3873.93 1273.22C3867.11 1273.49 3860.36 1272.2 3854.12 1269.45C3847.9 1266.7 3842.37 1262.57 3838 1257.36C3828.54 1245.27 3823.78 1230.18 3824.59 1214.87C3823.75 1199.32 3828.51 1183.99 3838.03 1171.65C3842.37 1166.41 3847.87 1162.23 3854.12 1159.45C3860.33 1156.66 3867.11 1155.34 3873.93 1155.59C3881.12 1155.45 3888.23 1156.92 3894.77 1159.89C3900.99 1162.84 3906.37 1167.24 3910.51 1172.74V1117.7L3928.8 1117.69ZM3911.16 1213.73C3911.96 1202.74 3908.96 1191.81 3902.69 1182.74C3899.59 1179.19 3895.73 1176.4 3891.38 1174.59C3887.01 1172.78 3882.31 1172.01 3877.61 1172.33C3872.88 1172.09 3868.16 1173 3863.84 1174.98C3859.53 1176.97 3855.75 1179.96 3852.87 1183.72C3846.5 1193.27 3843.44 1204.65 3844.16 1216.1C3843.56 1226.77 3846.74 1237.3 3853.14 1245.85C3856.14 1249.43 3859.92 1252.27 3864.2 1254.15C3868.48 1256.03 3873.12 1256.89 3877.79 1256.68C3882.49 1256.92 3887.19 1256.03 3891.47 1254.1C3895.76 1252.16 3899.53 1249.22 3902.45 1245.53C3908.81 1236.2 3911.88 1225.01 3911.16 1213.73Z" fill="#0B434B"></path><path d="M3984 1246.94H3962.47V1269.96H3984V1246.94Z" fill="#0B434B"></path><path d="M1571.23 469.272V95.7564H1653.36V400.219H1835.41V469.272H1571.23ZM2124.58 352.091H1929.46C1931.55 399.172 1954.57 420.621 1995.89 420.621C2025.71 420.621 2049.78 402.311 2054.49 385.571H2119.88C2098.95 449.393 2054.49 476.596 1993.28 476.596C1908.01 476.596 1855.17 418.005 1855.17 334.304C1855.17 253.219 1911.15 191.489 1993.28 191.489C2085.35 191.489 2129.82 268.913 2124.58 352.091ZM1929.46 305.009H2050.3C2043.5 267.343 2027.28 247.464 1991.19 247.464C1944.1 247.464 1930.5 284.084 1929.46 305.009ZM2331.86 364.646V336.92C2319.3 347.906 2293.15 348.429 2270.13 352.614C2247.11 357.322 2226.19 365.169 2226.19 392.372C2226.19 420.098 2247.64 426.898 2271.7 426.898C2329.77 426.898 2331.86 380.863 2331.86 364.646ZM2234.56 281.991H2160.27C2164.46 212.415 2226.71 191.489 2287.39 191.489C2341.28 191.489 2406.14 203.521 2406.14 268.39V409.112C2406.14 433.699 2408.76 458.286 2415.56 469.272H2340.23C2337.61 460.902 2335.52 452.009 2335 443.115C2311.46 467.703 2276.93 476.596 2243.97 476.596C2192.71 476.596 2151.9 450.962 2151.9 395.511C2151.9 334.304 2197.94 319.657 2243.97 313.379C2289.49 306.578 2331.86 308.148 2331.86 277.806C2331.86 245.895 2309.89 241.187 2283.73 241.187C2255.48 241.187 2237.17 252.696 2234.56 281.991ZM2458.57 469.272V198.813H2529.19V249.034H2530.24C2543.84 215.03 2580.46 191.489 2616.56 191.489C2621.79 191.489 2628.07 192.536 2632.77 194.105V263.158C2625.97 261.589 2614.99 260.543 2606.09 260.543C2551.69 260.543 2532.86 299.778 2532.86 347.382V469.272H2458.57ZM2665.86 469.272V198.813H2736.48V236.479H2738.05C2756.89 206.137 2789.32 191.489 2820.71 191.489C2899.7 191.489 2919.58 235.956 2919.58 302.916V469.272H2845.3V316.518C2845.3 272.052 2832.22 250.08 2797.69 250.08C2757.41 250.08 2740.15 272.575 2740.15 327.503V469.272H2665.86ZM3227.06 352.091H3031.94C3034.03 399.172 3057.05 420.621 3098.37 420.621C3128.19 420.621 3152.26 402.311 3156.96 385.571H3222.35C3201.43 449.393 3156.96 476.596 3095.76 476.596C3010.49 476.596 2957.65 418.005 2957.65 334.304C2957.65 253.219 3013.63 191.489 3095.76 191.489C3187.83 191.489 3232.29 268.913 3227.06 352.091ZM3031.94 305.009H3152.78C3145.98 267.343 3129.76 247.464 3093.66 247.464C3046.58 247.464 3032.98 284.084 3031.94 305.009ZM3265.89 469.272V198.813H3336.51V249.034H3337.56C3351.16 215.03 3387.78 191.489 3423.87 191.489C3429.11 191.489 3435.38 192.536 3440.09 194.105V263.158C3433.29 261.589 3422.31 260.543 3413.41 260.543C3359.01 260.543 3340.17 299.778 3340.17 347.382V469.272H3265.89ZM3450.91 381.386H3521.53C3522.05 413.82 3549.25 426.898 3578.55 426.898C3600 426.898 3627.2 418.528 3627.2 392.372C3627.2 369.877 3596.34 362.03 3542.98 350.521C3500.08 341.105 3457.18 325.934 3457.18 278.329C3457.18 209.276 3516.82 191.489 3574.89 191.489C3634 191.489 3688.41 211.368 3694.16 277.806H3623.54C3621.45 249.034 3599.47 241.187 3572.8 241.187C3556.06 241.187 3531.47 244.326 3531.47 266.297C3531.47 292.977 3573.32 296.639 3615.69 306.578C3659.11 316.518 3701.49 332.212 3701.49 382.432C3701.49 453.578 3639.76 476.596 3578.03 476.596C3515.25 476.596 3454.04 453.055 3450.91 381.386ZM1571.23 955.272V581.756H1850.58V650.81H1653.36V730.849H1834.37V794.671H1653.36V886.219H1854.77V955.272H1571.23ZM2090.41 955.272V920.745H2089.36C2072.1 950.041 2041.75 962.596 2007.23 962.596C1925.62 962.596 1885.86 892.496 1885.86 817.689C1885.86 744.973 1926.14 677.489 2005.66 677.489C2037.57 677.489 2068.96 691.091 2085.7 717.77H2086.74V581.756H2161.03V955.272H2090.41ZM2089.36 819.258C2089.36 775.315 2073.67 733.464 2025.54 733.464C1976.89 733.464 1960.15 775.315 1960.15 819.781C1960.15 862.155 1979.5 906.621 2025.54 906.621C2074.71 906.621 2089.36 863.724 2089.36 819.258ZM2465.66 684.813V955.272H2395.04V917.607H2393.47C2374.64 947.948 2342.2 962.596 2310.82 962.596C2231.82 962.596 2211.94 918.13 2211.94 851.169V684.813H2286.23V837.567C2286.23 882.034 2299.31 904.005 2333.83 904.005C2374.11 904.005 2391.38 881.511 2391.38 826.582V684.813H2465.66ZM2773.67 780.023H2700.95C2696.24 749.681 2676.89 733.464 2646.02 733.464C2598.42 733.464 2582.72 781.592 2582.72 821.35C2582.72 860.062 2597.9 906.621 2644.45 906.621C2678.98 906.621 2698.86 884.649 2703.57 851.692H2775.24C2765.82 923.361 2716.12 962.596 2644.98 962.596C2563.37 962.596 2508.44 905.051 2508.44 823.966C2508.44 739.742 2558.66 677.489 2646.55 677.489C2710.37 677.489 2768.96 710.97 2773.67 780.023ZM2980.42 850.646V822.92C2967.86 833.906 2941.71 834.429 2918.69 838.614C2895.67 843.322 2874.75 851.169 2874.75 878.372C2874.75 906.098 2896.19 912.898 2920.26 912.898C2978.33 912.898 2980.42 866.863 2980.42 850.646ZM2883.12 767.991H2808.83C2813.02 698.415 2875.27 677.489 2935.95 677.489C2989.84 677.489 3054.7 689.521 3054.7 754.39V895.112C3054.7 919.699 3057.32 944.286 3064.12 955.272H2988.79C2986.17 946.902 2984.08 938.009 2983.56 929.115C2960.02 953.703 2925.49 962.596 2892.53 962.596C2841.27 962.596 2800.46 936.962 2800.46 881.511C2800.46 820.304 2846.5 805.657 2892.53 799.379C2938.05 792.578 2980.42 794.148 2980.42 763.806C2980.42 731.895 2958.45 727.187 2932.29 727.187C2904.04 727.187 2885.73 738.696 2883.12 767.991ZM3201.29 603.728V684.813H3255.7V734.511H3201.29V868.432C3201.29 893.543 3207.57 899.82 3232.68 899.82C3240.53 899.82 3247.85 899.297 3255.7 897.728V955.795C3243.15 957.888 3226.93 958.411 3212.28 958.411C3166.77 958.411 3127.01 947.948 3127.01 894.066V734.511H3082.02V684.813H3127.01V603.728H3201.29ZM3287.91 955.272V684.813H3362.19V955.272H3287.91ZM3362.19 581.756V642.963H3287.91V581.756H3362.19ZM3407.08 820.304C3407.08 733.988 3462.01 677.489 3546.76 677.489C3632.03 677.489 3686.96 733.988 3686.96 820.304C3686.96 906.098 3632.03 962.596 3546.76 962.596C3462.01 962.596 3407.08 906.098 3407.08 820.304ZM3481.37 820.304C3481.37 863.201 3496.54 906.621 3546.76 906.621C3597.5 906.621 3612.67 863.201 3612.67 820.304C3612.67 776.884 3597.5 733.464 3546.76 733.464C3496.54 733.464 3481.37 776.884 3481.37 820.304ZM3730.02 955.272V684.813H3800.65V722.479H3802.22C3821.05 692.137 3853.48 677.489 3884.87 677.489C3963.86 677.489 3983.74 721.956 3983.74 788.916V955.272H3909.46V802.518C3909.46 758.052 3896.38 736.08 3861.85 736.08C3821.57 736.08 3804.31 758.575 3804.31 813.503V955.272H3730.02Z" fill="#0B434B"></path></svg>